<svg width="308" height="107" viewBox="0 0 308 107" fill="none" xmlns="http://www.w3.org/2000/svg">
<path d="M69.3269 102.833C69.2446 102.833 68.8764 102.833 68.2309 102.833L67.3862 102.867V102.651C67.8757 102.651 68.2136 102.521 68.3912 102.257C68.5342 102.041 68.6078 101.677 68.6078 101.162V96.796C68.6078 96.2551 68.4389 95.8224 68.0966 95.4935C67.7544 95.1646 67.3168 95.0002 66.7797 95.0002C65.8612 95.0002 65.0251 95.3897 64.2714 96.1686V101.162C64.2714 101.569 64.3233 101.898 64.4316 102.149C64.5746 102.495 64.8519 102.668 65.2591 102.668H65.5277V102.867L63.5869 102.833C63.4916 102.833 63.1233 102.833 62.4909 102.833L61.6461 102.867L61.6288 102.651C62.0923 102.651 62.4042 102.564 62.5688 102.391C62.7291 102.218 62.8244 101.902 62.8504 101.448V101.162V96.7051C62.8504 95.9868 62.6511 95.6277 62.2483 95.6277C62.0706 95.6277 61.841 95.6623 61.5551 95.7358V95.5195C62.6598 95.0781 63.5652 94.6713 64.2714 94.2992V95.9695C65.1594 94.905 66.2121 94.3728 67.4381 94.3728C68.2179 94.3728 68.8417 94.5891 69.3183 95.0175C69.7905 95.4459 70.0287 96.0431 70.0287 96.809V101.149C70.0287 101.638 70.0721 101.971 70.1544 102.153C70.2973 102.452 70.5789 102.616 70.9991 102.638L71.2677 102.655V102.871C71.0988 102.871 70.7349 102.859 70.1717 102.837H69.3269V102.833Z" fill="black"/>
<path d="M81.5002 98.1634C81.106 98.2586 80.7074 98.3841 80.3132 98.5399C79.4857 98.8731 78.9486 99.1371 78.693 99.3318C78.1514 99.7256 77.8829 100.249 77.8829 100.894C77.8829 102.019 78.381 102.582 79.3774 102.582C80.0489 102.582 80.7551 102.196 81.5002 101.431V98.1634ZM81.8987 103.192C81.7428 102.962 81.6171 102.642 81.5218 102.222C81.4958 102.127 81.4612 101.958 81.4135 101.72C80.4908 102.642 79.5247 103.105 78.5197 103.105C77.5493 103.105 76.8951 102.681 76.5616 101.829C76.4403 101.53 76.3796 101.24 76.3796 100.963C76.3796 100.375 76.7348 99.8684 77.441 99.4313C77.8265 99.202 78.459 98.9467 79.3471 98.6567L81.5045 97.973V96.5494C81.5045 95.9998 81.3919 95.5498 81.1623 95.1993C80.898 94.7925 80.5038 94.5891 79.9753 94.5891C79.5897 94.5891 79.2301 94.6973 78.8966 94.9137C78.511 95.1517 78.3204 95.4632 78.3204 95.8354C78.3204 96.0647 78.3724 96.3546 78.4807 96.7051L77.1854 97.1206C77.1507 97.0254 77.1204 96.8739 77.0944 96.6705C77.0944 96.0128 77.5493 95.4416 78.459 94.9656C79.2518 94.5458 80.0229 94.3381 80.781 94.3381C81.4049 94.3381 81.9031 94.5242 82.2843 94.8964C82.6612 95.2685 82.8518 95.7661 82.8518 96.3893V101.076C82.8518 101.746 83.0987 102.08 83.5883 102.08C83.7312 102.08 83.9348 102.019 84.1991 101.902L84.2511 102.045L81.8987 103.192Z" fill="black"/>
<path d="M93.5348 102.781L93.3009 103.088L92.9759 103.105C92.6294 103.131 92.2611 103.058 91.8799 102.889C90.7406 102.413 90.1731 101.582 90.1731 100.405V94.931H88.4662V94.6454H89.2763C89.7095 94.6324 90.1471 94.3554 90.5889 93.8145C90.9832 93.3082 91.2171 92.8193 91.2907 92.3519L91.3817 91.7548H91.581V94.6454H94.3492L94.2583 94.931H91.5767V100.483C91.5767 100.734 91.594 100.92 91.6286 101.041C91.6893 101.426 91.8669 101.746 92.1572 102.002C92.4518 102.261 92.7897 102.387 93.1752 102.387C93.4395 102.387 93.6778 102.326 93.8944 102.205C93.9767 102.157 94.1889 102.015 94.5225 101.772C94.0936 102.144 93.7644 102.478 93.5348 102.781Z" fill="black"/>
<path d="M106.323 103.174C106.046 102.876 105.912 102.408 105.912 101.772L105.535 102.041C105.188 102.292 104.751 102.569 104.222 102.867C103.815 103.036 103.334 103.118 102.784 103.118C101.991 103.118 101.359 102.889 100.886 102.426C100.414 101.963 100.176 101.34 100.176 100.548V96.7051C100.176 95.9868 99.968 95.6277 99.5478 95.6277C99.3788 95.6277 99.1535 95.6623 98.8633 95.7358V95.5195C99.7254 95.1949 100.631 94.7882 101.58 94.2992V100.569C101.58 101.205 101.74 101.712 102.065 102.097C102.39 102.482 102.862 102.672 103.486 102.672C104.434 102.672 105.232 102.266 105.877 101.452V96.5104C105.877 95.9219 105.669 95.632 105.249 95.632C105.08 95.632 104.855 95.6666 104.564 95.7402V95.5195L105.933 94.9742C106.319 94.8141 106.765 94.5891 107.281 94.2992V100.621C107.281 101.595 107.528 102.08 108.017 102.08C108.186 102.08 108.39 102.019 108.628 101.902L108.663 102.028L106.323 103.174Z" fill="black"/>
<path d="M118.47 95.2686C118.02 95.2686 117.582 95.4503 117.158 95.8181C116.733 96.1816 116.521 96.5927 116.521 97.0471V101.383C116.521 102.218 116.933 102.638 117.76 102.638V102.872C117.604 102.872 117.24 102.859 116.664 102.837H115.802C115.72 102.837 115.351 102.837 114.706 102.837L113.861 102.872V102.638C114.689 102.638 115.1 102.136 115.1 101.128V96.7095C115.1 95.9912 114.901 95.6321 114.498 95.6321C114.32 95.6321 114.091 95.6667 113.805 95.7402L113.77 95.5066C114.771 95.1474 115.689 94.745 116.521 94.3036V96.6749L116.824 96.0085C117.483 94.9181 118.232 94.3728 119.077 94.3728C119.354 94.3728 119.606 94.4161 119.848 94.4983V96.1859C119.588 95.5758 119.125 95.2686 118.47 95.2686Z" fill="black"/>
<path d="M130.696 97.9125C130.696 97.0643 130.535 96.333 130.211 95.7229C129.803 94.9699 129.21 94.5891 128.43 94.5891C127.785 94.5891 127.213 94.9483 126.723 95.6666C126.281 96.2897 126.034 96.9475 125.987 97.6442L125.952 98.1461H130.7V97.9125H130.696ZM132.186 98.449H125.948V98.7L125.965 98.8991C126.06 100.011 126.385 100.929 126.935 101.647C127.572 102.486 128.417 102.906 129.47 102.906C130.154 102.906 130.934 102.651 131.809 102.136L131.883 102.296C131.034 102.846 130.081 103.122 129.024 103.122C127.668 103.122 126.567 102.707 125.714 101.872C124.865 101.041 124.436 99.9463 124.436 98.5918C124.436 97.6095 124.687 96.7527 125.19 96.0214C125.731 95.2296 126.459 94.7363 127.382 94.5285C127.815 94.4333 128.239 94.3857 128.66 94.3857C129.799 94.3857 130.678 94.7579 131.302 95.4978C131.891 96.1945 132.182 97.1206 132.182 98.2803V98.449H132.186Z" fill="black"/>
<path d="M147.383 102.781L147.149 103.088L146.824 103.105C146.478 103.131 146.109 103.058 145.728 102.889C144.589 102.413 144.021 101.582 144.021 100.405V94.931H142.314V94.6454H143.125C143.558 94.6324 143.995 94.3554 144.437 93.8145C144.831 93.3082 145.065 92.8193 145.139 92.3519L145.23 91.7548H145.429V94.6454H148.197L148.107 94.931H145.425V100.483C145.425 100.734 145.442 100.92 145.477 101.041C145.538 101.426 145.715 101.746 146.005 102.002C146.3 102.261 146.638 102.387 147.023 102.387C147.288 102.387 147.526 102.326 147.743 102.205C147.825 102.157 148.037 102.015 148.371 101.772C147.942 102.144 147.613 102.478 147.383 102.781Z" fill="black"/>
<path d="M156.844 94.6065C155.982 94.6065 155.285 94.9656 154.756 95.6796C154.275 96.3244 154.037 97.0946 154.037 97.9947C154.037 99.1544 154.301 100.206 154.83 101.149C155.475 102.296 156.342 102.872 157.421 102.872C158.369 102.872 159.075 102.447 159.543 101.599C159.916 100.929 160.102 100.08 160.102 99.0549C160.102 97.5014 159.634 96.2811 158.699 95.3983C158.148 94.8704 157.529 94.6065 156.844 94.6065ZM157.1 103.118C155.818 103.118 154.756 102.707 153.916 101.889C153.075 101.067 152.655 100.02 152.655 98.7347C152.655 97.4062 153.075 96.3503 153.916 95.5714C154.756 94.7925 155.848 94.4031 157.191 94.4031C158.452 94.4031 159.496 94.7882 160.327 95.5541C161.159 96.3201 161.579 97.3326 161.579 98.5919C161.579 99.8987 161.159 100.976 160.319 101.833C159.478 102.69 158.404 103.118 157.1 103.118Z" fill="black"/>
<path d="M177.036 94.8228C176.248 94.8228 175.49 95.1993 174.762 95.9565V102.279C175.243 102.664 175.845 102.854 176.577 102.854C177.656 102.854 178.488 102.365 179.077 101.383C179.579 100.556 179.831 99.5741 179.831 98.436C179.831 97.4538 179.614 96.6359 179.185 95.9738C178.683 95.2036 177.968 94.8228 177.036 94.8228ZM176.876 103.066C176.209 103.066 175.499 102.893 174.762 102.547V105.325C174.762 105.853 174.836 106.221 174.979 106.424C175.148 106.701 175.481 106.84 175.984 106.84V107L174.043 106.926C173.948 106.926 173.579 106.939 172.947 106.961L172.102 106.995V106.818C172.583 106.818 172.912 106.692 173.09 106.441C173.22 106.251 173.298 105.896 173.324 105.381V104.988V96.7051C173.324 95.9868 173.129 95.6277 172.735 95.6277C172.635 95.6277 172.41 95.658 172.063 95.7185V95.5195C172.921 95.1949 173.818 94.7882 174.762 94.2992V95.7532C175.503 94.8314 176.43 94.3684 177.552 94.3684C178.722 94.3684 179.631 94.7492 180.29 95.5108C180.948 96.2724 181.273 97.2461 181.273 98.4317C181.273 99.7386 180.866 100.829 180.052 101.703C179.224 102.612 178.167 103.066 176.876 103.066Z" fill="black"/>
<path d="M192.944 97.9125C192.944 97.0643 192.784 96.333 192.459 95.7229C192.052 94.9699 191.458 94.5891 190.678 94.5891C190.033 94.5891 189.461 94.9483 188.971 95.6666C188.53 96.2897 188.283 96.9475 188.235 97.6442L188.2 98.1461H192.948V97.9125H192.944ZM194.434 98.449H188.196V98.7L188.213 98.8991C188.309 100.011 188.634 100.929 189.184 101.647C189.821 102.486 190.665 102.906 191.718 102.906C192.402 102.906 193.182 102.651 194.057 102.136L194.131 102.296C193.282 102.846 192.329 103.122 191.272 103.122C189.916 103.122 188.815 102.707 187.962 101.872C187.113 101.041 186.684 99.9463 186.684 98.5918C186.684 97.6095 186.935 96.7527 187.438 96.0214C187.979 95.2296 188.707 94.7363 189.63 94.5285C190.063 94.4333 190.488 94.3857 190.908 94.3857C192.047 94.3857 192.927 94.7579 193.55 95.4978C194.14 96.1945 194.43 97.1206 194.43 98.2803V98.449H194.434Z" fill="black"/>
<path d="M203.987 94.6065C203.124 94.6065 202.427 94.9656 201.898 95.6796C201.418 96.3244 201.179 97.0946 201.179 97.9947C201.179 99.1544 201.444 100.206 201.972 101.149C202.618 102.296 203.484 102.872 204.563 102.872C205.511 102.872 206.218 102.447 206.685 101.599C207.058 100.929 207.244 100.08 207.244 99.0549C207.244 97.5014 206.776 96.2811 205.841 95.3983C205.286 94.8704 204.671 94.6065 203.987 94.6065ZM204.238 103.118C202.955 103.118 201.894 102.707 201.054 101.889C200.213 101.067 199.793 100.02 199.793 98.7347C199.793 97.4062 200.213 96.3503 201.054 95.5714C201.894 94.7925 202.986 94.4031 204.329 94.4031C205.589 94.4031 206.633 94.7882 207.465 95.5541C208.297 96.3201 208.717 97.3326 208.717 98.5919C208.717 99.8987 208.297 100.976 207.457 101.833C206.62 102.69 205.546 103.118 204.238 103.118Z" fill="black"/>
<path d="M218.963 94.8228C218.174 94.8228 217.416 95.1993 216.688 95.9565V102.279C217.169 102.664 217.771 102.854 218.503 102.854C219.582 102.854 220.414 102.365 221.003 101.383C221.506 100.556 221.757 99.5741 221.757 98.436C221.757 97.4538 221.54 96.6359 221.111 95.9738C220.609 95.2036 219.894 94.8228 218.963 94.8228ZM218.802 103.066C218.135 103.066 217.425 102.893 216.688 102.547V105.325C216.688 105.853 216.762 106.221 216.905 106.424C217.074 106.701 217.407 106.84 217.91 106.84V107L215.969 106.926C215.874 106.926 215.506 106.939 214.873 106.961L214.028 106.995V106.818C214.509 106.818 214.839 106.692 215.016 106.441C215.146 106.251 215.224 105.896 215.25 105.381V104.988V96.7051C215.25 95.9868 215.055 95.6277 214.661 95.6277C214.561 95.6277 214.336 95.658 213.989 95.7185V95.5195C214.847 95.1949 215.744 94.7882 216.688 94.2992V95.7532C217.429 94.8314 218.356 94.3684 219.478 94.3684C220.648 94.3684 221.558 94.7492 222.216 95.5108C222.875 96.2724 223.199 97.2461 223.199 98.4317C223.199 99.7386 222.792 100.829 221.978 101.703C221.15 102.612 220.093 103.066 218.802 103.066Z" fill="black"/>
<path d="M229.745 100.825V90.8158C229.745 90.1104 229.524 89.7556 229.078 89.7556C228.974 89.7556 228.775 89.7859 228.48 89.8465L228.411 89.6301C229.303 89.3056 230.226 88.9118 231.179 88.4445V101.322C231.179 102.209 231.586 102.651 232.401 102.651V102.85L230.226 102.798C229.724 102.785 229.147 102.802 228.502 102.85L228.519 102.634C229.286 102.634 229.693 102.244 229.741 101.469V100.825H229.745Z" fill="black"/>
<path d="M243.95 97.9125C243.95 97.0643 243.79 96.333 243.465 95.7229C243.058 94.9699 242.464 94.5891 241.685 94.5891C241.039 94.5891 240.467 94.9483 239.978 95.6666C239.536 96.2897 239.289 96.9475 239.241 97.6442L239.207 98.1461H243.955V97.9125H243.95ZM245.445 98.449H239.207V98.7L239.224 98.8991C239.319 100.011 239.644 100.929 240.194 101.647C240.831 102.486 241.676 102.906 242.729 102.906C243.413 102.906 244.193 102.651 245.068 102.136L245.142 102.296C244.293 102.846 243.34 103.122 242.282 103.122C240.927 103.122 239.826 102.707 238.973 101.872C238.124 101.041 237.695 99.9463 237.695 98.5918C237.695 97.6095 237.946 96.7527 238.449 96.0214C238.99 95.2296 239.718 94.7363 240.641 94.5285C241.074 94.4333 241.498 94.3857 241.919 94.3857C243.058 94.3857 243.937 94.7579 244.561 95.4978C245.15 96.1945 245.441 97.1206 245.441 98.2803V98.449H245.445Z" fill="black"/>
<path fill-rule="evenodd" clip-rule="evenodd" d="M132.325 3.44854C122.395 10.4198 119.086 23.9078 106.228 18.04C120.021 17.1097 120.641 8.35132 129.669 3.68222C122.161 0.605539 110.231 2.67829 106.917 12.4709C109.724 10.0995 114.147 5.31792 125.692 4.9025C114.853 7.31278 108.368 12.9425 104.499 17.629C102.169 1.95132 117.071 -4.59149 132.325 3.44854Z" fill="#75B051"/>
<path d="M17.2288 9.85287C15.8859 9.85287 14.2007 10.0389 12.2036 10.4154V32.8349C14.4 33.5835 16.553 33.9557 18.6584 33.9557C25.7198 33.9557 29.2505 30.3597 29.2505 23.1678C29.2505 19.1521 28.2671 15.9759 26.3176 13.6392C24.2209 11.1164 21.1927 9.85287 17.2288 9.85287ZM40.9602 60.2957C35.0209 60.2957 29.831 56.0203 25.3906 47.474L21.1841 39.421C20.4953 38.0666 19.8498 37.1578 19.2563 36.6905C18.6021 35.9895 17.6447 35.5221 16.3451 35.2885L12.2079 34.5875V51.0526C12.2079 53.9952 12.4765 55.9121 13.0267 56.7992C13.8108 58.0585 15.47 58.6903 18.0303 58.6903V59.322L9.05413 59.11C8.49096 59.11 6.76244 59.1446 3.86425 59.2138L0 59.3177V58.5475C2.57328 58.5475 4.25414 57.894 5.05125 56.5872C5.65775 55.6049 5.961 53.7269 5.961 50.9704V16.8024C5.961 14.6085 5.74872 13.0291 5.32851 12.0987C4.67436 10.6058 3.34006 9.8572 1.32996 9.8572H0V8.94848H8.62525C9.69962 8.94848 11.3155 8.89222 13.4642 8.77539C15.6173 8.65855 17.2288 8.60229 18.3032 8.60229C29.805 8.60229 35.558 12.8993 35.558 21.4802C35.558 24.704 34.6916 27.4129 32.9631 29.6068C31.2346 31.792 28.7999 33.2373 25.6678 33.9384L24.1256 34.2889C25.8671 36.2967 27.5956 38.7979 29.2938 41.7837L33.9682 50.1309C37.3689 56.1675 40.8086 59.1792 44.2569 59.1792C44.5862 59.1792 44.8418 59.1792 45.0281 59.1792V59.8326C43.7674 60.1442 42.4115 60.2957 40.9602 60.2957Z" fill="black"/>
<path d="M51.4829 59.1749C51.1104 59.1749 49.6808 59.1749 47.2028 59.1749L43.906 59.3134V58.4047C45.5912 58.4047 46.8042 58.0541 47.5537 57.3531C48.1169 56.8382 48.4634 55.6006 48.6064 53.6404L48.6757 52.5888V35.4962C48.6757 32.6921 47.8829 31.2944 46.293 31.2944C45.8728 31.2944 44.9588 31.4113 43.5595 31.6449L43.6288 30.8054C47.8353 29.1697 51.3443 27.6076 54.1515 26.1104V50.4685C54.1515 53.0951 54.2685 54.8001 54.5024 55.5963C55.0179 57.3834 56.2093 58.3397 58.0808 58.4825L59.1335 58.5518L59.0641 59.322L51.4829 59.1749ZM51.4829 19.5935C50.3133 19.5935 49.3559 19.1738 48.6064 18.3343C47.8569 17.4948 47.4844 16.4909 47.4844 15.3225C47.4844 14.2494 47.8829 13.2887 48.6757 12.4492C49.4728 11.6097 50.4042 11.19 51.4829 11.19C52.6049 11.19 53.5537 11.5968 54.3248 12.4146C55.0959 13.2325 55.4815 14.2018 55.4815 15.3225C55.4815 16.4909 55.1089 17.4948 54.3595 18.3343C53.61 19.1695 52.6526 19.5935 51.4829 19.5935Z" fill="black"/>
<path d="M62.9154 59.387L84.8706 28.0707H74.9803C72.0822 28.0707 70.0721 28.3736 68.95 28.9794C67.3125 29.8665 66.2598 31.6407 65.7919 34.3019C65.6966 34.8645 65.675 35.3058 65.7226 35.6347H65.1594V27.0884H91.6373L69.6822 58.4047H79.7717C87.5695 58.4047 91.4597 55.8819 91.4597 50.8364H91.9493V59.3827H62.9154V59.387Z" fill="black"/>
<path d="M195.933 59.1057C194.859 59.0581 193.373 59.084 191.467 59.1749C189.361 59.3134 187.901 59.387 187.061 59.387V58.6167C189.539 58.6167 191.176 58.0109 191.969 56.7949C192.576 55.8602 192.883 54.0385 192.883 51.3296V34.8644H163.425V52.7749C163.425 54.9342 163.858 56.4531 164.725 57.3402C165.591 58.2402 167.099 58.6816 169.247 58.6816V59.3826L159.743 59.1014L151.36 59.3826V58.6816C153.977 58.6816 155.683 58.0498 156.481 56.7906C157.087 55.8083 157.395 53.8827 157.395 51.0354V17.3607C157.395 14.5133 157.091 12.6093 156.481 11.6746C155.688 10.4154 153.981 9.78364 151.36 9.78364V8.94415L160.267 9.22542C160.83 9.22542 162.532 9.17782 165.422 9.08695L169.243 8.94848V9.78797C166.752 9.78797 165.106 10.3938 164.322 11.6097C163.724 12.5444 163.421 14.3878 163.421 17.1443V33.5359H192.879V17.352C192.879 14.4571 192.61 12.5661 192.06 11.679C191.276 10.4197 189.617 9.78797 187.057 9.78797V8.94848C187.979 8.94848 189.699 8.99608 192.212 9.08695L195.963 9.22542C196.384 9.22542 198.104 9.17782 201.119 9.08695L204.94 8.94848V9.78797C202.717 9.78797 201.153 10.2207 200.252 11.0861C199.351 11.9516 198.909 13.4791 198.909 15.673V50.9834C198.909 53.926 199.191 55.8429 199.75 56.73C200.542 57.9893 202.249 58.621 204.87 58.621L204.94 59.3913C204.142 59.3913 202.449 59.3437 199.841 59.2528L195.933 59.1057Z" fill="black"/>
<path d="M234.615 40.0485C234.615 36.7338 233.982 33.8822 232.722 31.5022C231.132 28.5596 228.818 27.0884 225.777 27.0884C223.251 27.0884 221.029 28.4904 219.114 31.2901C217.386 33.7177 216.424 36.2881 216.238 38.997L216.099 40.9572H234.615V40.0485ZM240.437 42.1515H216.099V43.1338L216.168 43.9041C216.541 48.2486 217.806 51.823 219.955 54.6227C222.433 57.8941 225.729 59.5255 229.845 59.5255C232.509 59.5255 235.55 58.5215 238.964 56.5137L239.246 57.1455C235.927 59.2918 232.21 60.3693 228.095 60.3693C222.81 60.3693 218.508 58.7466 215.189 55.5011C211.871 52.2557 210.207 47.9933 210.207 42.7141C210.207 38.8845 211.191 35.5438 213.153 32.6965C215.259 29.6155 218.109 27.6769 221.709 26.8807C223.394 26.5085 225.054 26.3181 226.691 26.3181C231.132 26.3181 234.571 27.7677 237.002 30.6627C239.293 33.3715 240.437 36.9935 240.437 41.5241V42.1515Z" fill="black"/>
<path d="M263.817 29.7496C262.054 29.7496 260.347 30.4636 258.697 31.8873C257.051 33.298 256.219 34.899 256.219 36.6732V53.5798C256.219 56.8382 257.83 58.4739 261.058 58.4739V59.3826C260.451 59.3826 259.022 59.335 256.778 59.2442H253.412C253.082 59.2442 251.657 59.2442 249.132 59.2442L245.835 59.3826V58.4739C249.062 58.4739 250.674 56.5137 250.674 52.5889V35.3577C250.674 32.5537 249.89 31.156 248.326 31.156C247.637 31.156 246.736 31.2944 245.627 31.5757L245.488 30.667C249.391 29.265 252.97 27.7028 256.219 25.9719V35.2193L257.402 32.6272C259.962 28.3779 262.895 26.2532 266.191 26.2532C267.266 26.2532 268.262 26.4176 269.194 26.7422V33.3283C268.18 30.9439 266.378 29.7496 263.817 29.7496Z" fill="black"/>
<path d="M290.239 28.2091C286.873 28.2091 283.927 29.6587 281.402 32.5666V57.4959C283.507 58.8503 285.799 59.5297 288.277 59.5297C292.483 59.5297 295.758 57.8248 298.098 54.4019C300.203 51.4031 301.256 47.712 301.256 43.3068C301.256 39.183 300.463 35.7861 298.873 33.1248C296.945 29.8448 294.073 28.2091 290.239 28.2091ZM289.394 60.0187C287.804 60.0187 286.119 59.8543 284.343 59.5297L275.999 57.9849V12.9944C275.999 9.83121 275.111 8.24311 273.335 8.24311C272.915 8.24311 272.118 8.35995 270.952 8.59362L270.74 7.75413C274.436 6.4949 277.988 4.95007 281.402 3.1283V31.6449C283.459 29.8448 285.119 28.6072 286.383 27.9538C288.16 27.0061 290.148 26.5301 292.345 26.5301C296.833 26.5301 300.398 27.9321 303.041 30.7318C305.683 33.5359 307.004 37.2011 307.004 41.7317C307.004 47.2446 305.436 51.6671 302.304 55.0077C299.168 58.3484 294.866 60.0187 289.394 60.0187Z" fill="black"/>
<path d="M115.871 41.0308C114.329 41.4029 112.787 41.8962 111.24 42.502C108.013 43.8089 105.912 44.8388 104.928 45.583C102.823 47.1235 101.77 49.1574 101.77 51.6801C101.77 56.0723 103.711 58.2662 107.593 58.2662C110.209 58.2662 112.969 56.7733 115.871 53.7832V41.0308ZM117.413 60.6462C116.807 59.7591 116.313 58.4956 115.941 56.8642C115.845 56.4921 115.707 55.8386 115.52 54.904C111.92 58.4999 108.156 60.3 104.226 60.3C100.44 60.3 97.8886 58.6427 96.5803 55.315C96.1124 54.1467 95.8785 53.0259 95.8785 51.9398C95.8785 49.6507 97.2561 47.6645 100.016 45.9725C101.51 45.0854 103.988 44.0815 107.45 42.9607L115.867 40.2865V34.7346C115.867 32.584 115.421 30.8358 114.533 29.4684C113.506 27.8803 111.959 27.0884 109.902 27.0884C108.407 27.0884 107.003 27.5081 105.695 28.3606C104.2 29.2953 103.451 30.4982 103.451 31.9565C103.451 32.8436 103.663 33.9774 104.084 35.3448L99.0323 36.9675C98.8936 36.5953 98.7767 36.0112 98.6814 35.2149C98.6814 32.6446 100.458 30.429 104.01 28.5596C107.094 26.9239 110.114 26.1061 113.06 26.1061C115.49 26.1061 117.444 26.8287 118.917 28.2784C120.39 29.728 121.126 31.6666 121.126 34.0942V52.3812C121.126 54.9948 122.083 56.306 124.003 56.306C124.566 56.306 125.359 56.0723 126.385 55.605L126.598 56.1675L117.413 60.6462Z" fill="black"/>
<path d="M261.119 76.1334H45.8815V77.6653H261.119V76.1334Z" fill="#75B051"/>
</svg>
